<?xml version="1.0" standalone="no"?>
<!DOCTYPE svg PUBLIC "-//W3C//DTD SVG 20010904//EN"
 "http://www.w3.org/TR/2001/REC-SVG-20010904/DTD/svg10.dtd">
<svg version="1.0" xmlns="http://www.w3.org/2000/svg"
 width="150.000000pt" height="150.000000pt" viewBox="0 0 150.000000 150.000000"
 preserveAspectRatio="xMidYMid meet">
<metadata>
Created by potrace 1.11, written by Peter Selinger 2001-2013
</metadata>
<g transform="translate(0.000000,150.000000) scale(0.100000,-0.100000)"
fill="#000000" stroke="none">
<path d="M655 1240 c-71 -31 -132 -142 -115 -212 4 -18 9 -38 11 -44 2 -6 -7
-24 -21 -40 -56 -64 -138 -205 -165 -283 -31 -90 -9 -187 56 -246 21 -19 44
-35 49 -35 23 0 8 -19 -20 -25 -74 -16 -103 -110 -54 -176 21 -29 24 -41 20
-81 -3 -25 -10 -58 -16 -72 l-10 -26 330 0 330 0 0 28 1 27 15 -27 c13 -25 20
-28 69 -28 30 0 55 2 55 4 0 2 -12 27 -26 55 -37 74 -41 112 -16 147 39 55 33
103 -19 155 -22 22 -43 38 -46 35 -3 -3 -14 -1 -24 4 -17 10 -17 12 6 46 41
60 45 175 11 269 -20 54 -31 75 -72 137 -48 72 -130 151 -181 176 -18 8 -29
20 -26 25 13 21 11 112 -3 139 -27 52 -84 72 -139 48z"/>
</g>
</svg>
